<?xml version="1.0" standalone="no"?>
<!DOCTYPE svg PUBLIC "-//W3C//DTD SVG 20010904//EN"
 "http://www.w3.org/TR/2001/REC-SVG-20010904/DTD/svg10.dtd">
<svg version="1.0" xmlns="http://www.w3.org/2000/svg"
 width="300.000000pt" height="300.000000pt" viewBox="0 0 300.000000 300.000000"
 preserveAspectRatio="xMidYMid meet">
<metadata>
Created by potrace 1.16, written by Peter Selinger 2001-2019
</metadata>
<g transform="translate(0.000000,300.000000) scale(0.100000,-0.100000)"
fill="#000000" stroke="none">
<path d="M1281 2985 c-639 -98 -1138 -582 -1257 -1220 -28 -148 -25 -413 5
-555 43 -203 120 -387 232 -552 87 -128 275 -315 405 -401 544 -361 1244 -334
1758 67 286 224 488 561 553 926 23 129 22 381 -1 510 -111 609 -580 1088
-1185 1211 -129 27 -382 33 -510 14z m-4 -1236 c47 -17 81 -58 94 -111 15 -64
7 -183 -15 -226 -51 -98 -194 -95 -241 4 -23 48 -31 165 -16 221 25 91 103
140 178 112z m-887 -41 c43 -162 68 -241 73 -228 3 8 13 42 22 75 9 33 25 90
36 128 l20 67 49 0 50 0 0 -200 0 -200 -35 0 -35 0 -1 158 -1 157 -34 -120
c-19 -66 -39 -137 -45 -157 -8 -32 -14 -38 -37 -38 -26 0 -28 3 -66 148 -21
81 -42 150 -45 154 -3 4 -4 -63 -2 -147 l3 -155 -31 0 -31 0 0 200 0 200 50 0
49 0 11 -42z m389 -115 c19 -84 38 -147 42 -140 3 6 21 76 39 155 33 141 34
142 62 142 15 0 28 -4 28 -9 0 -5 -18 -79 -41 -163 -22 -84 -45 -170 -50 -190
-9 -36 -12 -38 -48 -38 l-38 0 -47 183 c-26 100 -50 190 -52 200 -5 16 0 18
32 15 l37 -3 36 -152z m808 19 l62 -137 1 138 0 137 30 0 30 0 0 -200 0 -200
-32 0 c-33 0 -34 2 -97 143 -36 78 -68 146 -73 152 -4 5 -8 -59 -8 -143 l0
-152 -30 0 -30 0 0 200 0 200 43 0 42 0 62 -138z m263 -37 l0 -175 70 0 c68 0
70 -1 70 -25 l0 -25 -105 0 -105 0 0 200 0 200 35 0 35 0 0 -175z m250 -25 l0
-200 -35 0 -35 0 0 200 0 200 35 0 35 0 0 -200z m215 63 l60 -132 3 135 3 134
29 0 30 0 0 -200 0 -200 -33 0 c-32 0 -33 1 -102 153 l-70 152 -3 -152 -3
-153 -29 0 -30 0 0 201 0 200 42 -3 42 -3 61 -132z m435 107 l0 -30 -83 0 -84
0 1 -52 2 -53 62 -3 c58 -3 62 -5 62 -27 0 -23 -4 -24 -62 -27 l-63 -3 0 -60
1 -60 82 -3 c80 -3 82 -4 82 -27 l0 -25 -115 0 -115 0 0 200 0 200 115 0 115
0 0 -30z"/>
<path d="M1196 1677 c-31 -31 -44 -120 -28 -196 14 -67 26 -81 68 -81 53 0 69
34 69 146 0 78 -3 97 -21 121 -28 37 -58 40 -88 10z"/>
</g>
</svg>
